<?xml version="1.0" standalone="no"?>
<!DOCTYPE svg PUBLIC "-//W3C//DTD SVG 20010904//EN"
 "http://www.w3.org/TR/2001/REC-SVG-20010904/DTD/svg10.dtd">
<svg version="1.0" xmlns="http://www.w3.org/2000/svg"
 width="415.000000pt" height="415.000000pt" viewBox="0 0 415.000000 415.000000"
 preserveAspectRatio="xMidYMid meet">
<metadata>
Created by potrace 1.14, written by Peter Selinger 2001-2017
</metadata>
<g transform="translate(0.000000,415.000000) scale(0.100000,-0.100000)"
fill="#000000" stroke="none">
<path d="M1840 4139 c-795 -89 -1476 -643 -1729 -1404 -255 -767 -46 -1601
540 -2160 387 -369 883 -565 1427 -565 248 0 432 29 661 105 530 177 964 560
1206 1068 335 701 254 1521 -212 2145 -76 102 -257 288 -363 372 -372 296
-827 453 -1303 449 -84 -1 -186 -5 -227 -10z"/>
</g>
</svg>
